<?xml version="1.0" encoding="UTF-8"?> <svg xmlns="http://www.w3.org/2000/svg" width="95" height="57" viewBox="0 0 95 57" fill="none"><g id="logo-16-10-2023" clip-path="url(#clip0_4059_5864)"><g id="Group"><path id="Vector" d="M44.8516 11.3664V13.8873C44.8516 13.9635 44.8825 14.0397 44.9373 14.0945L47.2057 16.3629V20.5993C47.2057 20.7565 47.3296 20.8923 47.4868 20.8971C47.6536 20.9019 47.7894 20.7708 47.7894 20.6064V16.3629L50.0577 14.0945C50.1125 14.0397 50.1435 13.9659 50.1435 13.8873V2.90783C50.1435 2.75058 50.0196 2.61476 49.8623 2.61C49.6956 2.60523 49.5597 2.73628 49.5597 2.90069V6.20547L48.154 7.61126L48.5471 6.408C48.559 6.37226 48.559 6.33414 48.5471 6.30078L47.8061 4.0134C47.7942 3.97766 47.7894 3.94192 47.7894 3.90618V0.510852C47.7894 0.353595 47.6655 0.217782 47.5083 0.213017C47.3415 0.208251 47.2057 0.339299 47.2057 0.503704V3.90141C47.2057 3.93954 47.2009 3.97528 47.189 4.01102L46.448 6.27695C46.436 6.31269 46.436 6.35082 46.448 6.38417L46.8459 7.61364L45.4353 6.20309V2.90545C45.4353 2.74819 45.3114 2.61238 45.1542 2.60762C44.9874 2.60285 44.8516 2.7339 44.8516 2.8983V6.32222V8.84311V11.364V11.3664ZM49.5597 11.2449L47.7894 13.0152V11.3187L49.5597 9.54838V11.2449ZM47.2057 13.0152L45.4353 11.2449V9.54838L47.2057 11.3187V13.0152ZM45.4353 13.7657V12.0693L47.2057 13.8396V15.5361L45.4353 13.7657ZM47.7894 15.5361V13.8396L49.5597 12.0693V13.7657L47.7894 15.5361ZM49.5597 8.72397L47.7894 10.4943V8.79783L49.5597 7.0275V8.72397ZM47.4963 4.94503L47.9514 6.35082L47.4987 7.73516L47.0436 6.32937L47.4963 4.94503ZM47.2057 8.79783V10.4943L45.4353 8.72397V7.0275L47.2057 8.79783Z" fill="#C69B3E"></path><path id="Vector_2" d="M60.4148 12.6291L58.0774 14.9665H56.0902L57.2196 14.3946C57.253 14.378 57.2792 14.3518 57.2959 14.3184L58.3895 12.1764C58.4062 12.143 58.4276 12.1144 58.4538 12.0882L60.8556 9.68646C60.97 9.57209 60.97 9.38862 60.8556 9.27425C60.7412 9.15988 60.5577 9.15988 60.4434 9.27425L58.0416 11.676C58.0154 11.7022 57.9845 11.7237 57.9511 11.7403L55.8257 12.8173C55.7924 12.834 55.7662 12.8602 55.7495 12.8936L55.161 14.0444V12.0501L57.4984 9.71267C57.6151 9.59592 57.6128 9.4053 57.4912 9.29332C57.3697 9.18133 57.1934 9.19324 57.0814 9.30523L49.3162 17.0704C49.2614 17.1252 49.2305 17.1991 49.2305 17.2777V20.6063C49.2305 20.6063 49.2305 20.6254 49.2305 20.6325C49.2305 20.642 49.2305 20.6492 49.2352 20.6587C49.2352 20.6683 49.24 20.6754 49.2424 20.6849C49.2448 20.6921 49.2472 20.7016 49.2519 20.7088C49.2519 20.7088 49.2519 20.7088 49.2519 20.7111C49.2543 20.7183 49.2591 20.7254 49.2614 20.735C49.2614 20.735 49.2614 20.735 49.2614 20.7374C49.2662 20.7445 49.2686 20.7517 49.2734 20.7588C49.2734 20.7588 49.2734 20.7588 49.2734 20.7612C49.2781 20.7683 49.2829 20.7755 49.29 20.7826C49.2972 20.7898 49.3019 20.7969 49.3091 20.8041C49.3162 20.8112 49.3234 20.8184 49.3305 20.8231C49.3377 20.8279 49.3448 20.8327 49.352 20.8398C49.352 20.8398 49.352 20.8398 49.3544 20.8398C49.3615 20.8446 49.3687 20.8493 49.3758 20.8517C49.3758 20.8517 49.3758 20.8517 49.3782 20.8517C49.3853 20.8565 49.3925 20.8589 49.402 20.8613C49.402 20.8613 49.402 20.8613 49.4044 20.8613C49.4116 20.8636 49.4211 20.8684 49.4282 20.8708C49.4378 20.8732 49.4449 20.8756 49.4544 20.8779C49.464 20.8779 49.4711 20.8803 49.4807 20.8827C49.4902 20.8827 49.4973 20.8827 49.5069 20.8827H52.8355C52.9117 20.8827 52.988 20.8517 53.0428 20.7969L60.8127 13.027C60.9271 12.9126 60.9271 12.7291 60.8127 12.6148C60.6983 12.5004 60.5149 12.5004 60.4005 12.6148L60.4148 12.6291ZM56.2951 16.7487H53.7909L54.9894 15.5502H57.4936L56.2951 16.7487ZM54.5129 18.531H52.0087L53.2072 17.3325H55.7114L54.5129 18.531ZM51.5965 18.1188V15.6146L52.795 14.4161V16.9203L51.5965 18.1188ZM56.2094 13.2772L57.5103 12.6172L56.8384 13.9324L55.5374 14.5924L56.2094 13.2772ZM54.5796 15.138L53.3811 16.3365V13.8323L54.5796 12.6338V15.138ZM51.0151 16.1983V18.7025L49.8166 19.901V17.3968L51.0151 16.1983ZM52.733 20.3156H50.2288L51.4273 19.1171H53.9315L52.733 20.3156Z" fill="#C69B3E"></path><path id="Vector_3" d="M42.1489 20.8973H45.4775C45.4775 20.8973 45.4965 20.8973 45.5037 20.8973C45.5132 20.8973 45.5204 20.8973 45.5299 20.8926C45.5394 20.8926 45.5466 20.8878 45.5561 20.8854C45.5632 20.8831 45.5728 20.8807 45.5799 20.8759C45.5799 20.8759 45.5799 20.8759 45.5823 20.8759C45.5895 20.8735 45.5966 20.8688 45.6061 20.8664C45.6061 20.8664 45.6061 20.8664 45.6085 20.8664C45.6157 20.8616 45.6228 20.8592 45.63 20.8545C45.63 20.8545 45.63 20.8545 45.6323 20.8545C45.6395 20.8497 45.6466 20.8449 45.6538 20.8378C45.6609 20.8306 45.6681 20.8259 45.6752 20.8187C45.6824 20.8116 45.6895 20.8044 45.6943 20.7973C45.6991 20.7901 45.7062 20.783 45.711 20.7758C45.711 20.7758 45.711 20.7758 45.711 20.7734C45.7157 20.7663 45.7205 20.7592 45.7229 20.752C45.7229 20.752 45.7229 20.752 45.7229 20.7496C45.7276 20.7425 45.73 20.7353 45.7324 20.7258C45.7324 20.7258 45.7324 20.7258 45.7324 20.7234C45.7348 20.7163 45.7396 20.7067 45.7419 20.6996C45.7443 20.6924 45.7467 20.6829 45.7491 20.6734C45.7491 20.6638 45.7515 20.6567 45.7539 20.6472C45.7539 20.6376 45.7539 20.6305 45.7539 20.621V17.2923C45.7539 17.2161 45.7229 17.1399 45.6681 17.085L37.9029 9.31988C37.7909 9.20789 37.6098 9.20074 37.4931 9.30796C37.3716 9.41995 37.3692 9.61056 37.4859 9.72732L39.8234 12.0647V14.059L39.2348 12.9082C39.2182 12.8748 39.1919 12.8486 39.1586 12.832L37.0332 11.755C36.9999 11.7383 36.9689 11.7169 36.9427 11.6906L34.5409 9.2889C34.4266 9.17453 34.2431 9.17453 34.1287 9.2889C34.0144 9.40327 34.0144 9.58674 34.1287 9.70111L36.5305 12.1029C36.5567 12.1291 36.5781 12.16 36.5948 12.191L37.6885 14.333C37.7052 14.3664 37.7314 14.3926 37.7647 14.4093L38.8941 14.9811H36.907L34.5695 12.6437C34.4552 12.5294 34.2717 12.5294 34.1573 12.6437C34.043 12.7581 34.043 12.9416 34.1573 13.0559L41.9273 20.8259C41.9821 20.8807 42.0559 20.9116 42.1346 20.9116L42.1489 20.8973ZM41.0695 19.1151H43.5737L44.7722 20.3136H42.268L41.0695 19.1151ZM42.2037 16.9206V14.4164L43.4022 15.6149V18.1191L42.2037 16.9206ZM42.9899 18.5313H40.4857L39.2873 17.3328H41.7915L42.9899 18.5313ZM45.1844 19.9014L43.9859 18.7029V16.1987L45.1844 17.3972V19.9014ZM41.6199 13.8327V16.3369L40.4214 15.1384V12.6342L41.6199 13.8327ZM37.4907 12.6175L38.7917 13.2775L39.4636 14.5928L38.1626 13.9328L37.4907 12.6175ZM40.0092 15.5506L41.2077 16.7491H38.7035L37.505 15.5506H40.0092Z" fill="#C69B3E"></path><path id="Vector_4" d="M52.8483 21.9932H42.1501C41.988 21.9932 41.8594 22.1242 41.8594 22.2839C41.8594 22.4435 41.9904 22.5745 42.1501 22.5745H52.8483C53.0103 22.5745 53.139 22.4435 53.139 22.2839C53.139 22.1242 53.008 21.9932 52.8483 21.9932Z" fill="#C69B3E"></path><path id="Vector_5" d="M52.8483 23.3418H42.1501C41.988 23.3418 41.8594 23.4728 41.8594 23.6325C41.8594 23.7921 41.9904 23.9232 42.1501 23.9232H52.8483C53.0103 23.9232 53.139 23.7921 53.139 23.6325C53.139 23.4728 53.008 23.3418 52.8483 23.3418Z" fill="#C69B3E"></path></g><g id="Group_2"><path id="Vector_6" d="M13.8906 55.167L14.5006 55.2266L14.9795 50.5017L15.0105 50.1967L14.4053 50.1348L13.8906 55.167Z" fill="#C69B3E"></path><path id="Vector_7" d="M20.8162 50.8879C20.7137 52.1579 20.6112 53.4255 20.5088 54.6931C19.6367 53.3039 18.7766 51.9101 17.9498 50.5448L17.8855 50.4733L17.8259 50.4686C17.7163 50.459 17.6043 50.4495 17.4947 50.4376L17.3327 50.4209L16.88 55.2983L16.8633 55.4603L17.4756 55.5175L17.8378 51.5598C18.6908 52.9608 19.5533 54.3547 20.4111 55.72L20.4421 55.7724L21.0234 55.8201L21.4261 50.7783L20.8257 50.7259L20.8138 50.8903L20.8162 50.8879Z" fill="#C69B3E"></path><path id="Vector_8" d="M23.1815 50.9094L23.0218 50.8975L22.9766 51.4955L23.1386 51.5074C23.6199 51.5432 24.0988 51.5765 24.5801 51.6099L24.2894 55.894L24.2775 56.056L24.8922 56.0989L24.9018 55.9368C24.9971 54.5072 25.0924 53.08 25.1901 51.6504C25.6714 51.6814 26.1527 51.7123 26.634 51.7433L26.7936 51.7528L26.8294 51.1548L26.6697 51.1453C25.5546 51.0762 24.3823 50.9975 23.1862 50.9094H23.1815Z" fill="#C69B3E"></path><path id="Vector_9" d="M28.5838 51.2571L28.4218 51.2476L28.1502 56.1368L28.1406 56.2965L28.3026 56.306C29.2724 56.3608 30.3208 56.4132 31.505 56.468L31.667 56.4752L31.6932 55.8747L31.5336 55.8676C30.6663 55.8271 29.7656 55.7842 28.7887 55.7318L28.8793 54.0496C29.6536 54.0925 30.4351 54.1306 31.2095 54.1663L31.3692 54.1759L31.3978 53.5659L31.2381 53.5588C30.4066 53.5206 29.6441 53.4825 28.9126 53.442L28.9984 51.8766C29.8657 51.9219 30.7473 51.9671 31.6193 52.0053L31.779 52.0124L31.8076 51.4143L31.6456 51.4072C30.5614 51.3572 29.5607 51.3071 28.5862 51.2523L28.5838 51.2571Z" fill="#C69B3E"></path><path id="Vector_10" d="M36.5046 54.9263C37.2099 54.6904 37.6054 54.1352 37.6245 53.3418C37.6507 52.2553 36.9383 51.6072 35.6683 51.5667C35.1084 51.5477 34.5508 51.5286 33.9909 51.5071L33.8289 51.5L33.6406 56.5537L34.253 56.5775L34.3102 55.0002L35.5539 55.0431C35.6659 55.0478 35.7731 55.0478 35.8875 55.0383C36.2306 55.5577 36.5761 56.0771 36.9335 56.6132L36.9907 56.6657L37.7174 56.6847L37.5339 56.4226C37.1884 55.9246 36.8453 55.4243 36.5022 54.9239L36.5046 54.9263ZM37.0217 53.3347C37.0121 53.6706 36.9073 53.9351 36.7095 54.121C36.4689 54.3473 36.071 54.4593 35.5825 54.445C35.1655 54.4307 34.7486 54.4164 34.3316 54.4021L34.415 52.1243L34.6509 52.1338C34.9845 52.1457 35.3204 52.1576 35.654 52.1672C36.2902 52.1862 37.0455 52.4054 37.0217 53.3347Z" fill="#C69B3E"></path><path id="Vector_11" d="M43.2413 54.0235C43.2389 54.5763 43.2366 55.1267 43.2318 55.689C42.2668 54.3785 41.3066 53.0538 40.375 51.7433L40.2677 51.6766H40.2272C40.1224 51.6766 40.0176 51.6718 39.9127 51.6694H39.7507L39.7483 51.8267C39.7197 53.404 39.6935 54.9837 39.6649 56.5611L39.6602 56.7231H39.8198C39.8841 56.7279 39.9485 56.7279 40.0128 56.7303L40.2701 56.735L40.3368 52.7631C41.2971 54.1069 42.2573 55.4317 43.208 56.7183L43.2652 56.7684H43.3247C43.4367 56.7684 43.5511 56.7684 43.6631 56.7684H43.8227L43.8465 51.872V51.7123L43.2461 51.7076L43.2318 54.0188L43.2413 54.0235Z" fill="#C69B3E"></path><path id="Vector_12" d="M48.1911 51.798L48.1386 51.7051H48.0433C47.9409 51.7051 47.8408 51.7051 47.7407 51.7075H47.6359L47.5954 51.8028C46.8901 53.392 46.1682 54.986 45.4486 56.5467L45.3438 56.7778H45.5963L45.6821 56.7754C45.7607 56.7754 45.837 56.7754 45.9132 56.7754H46.0157L46.0586 56.6801C46.2492 56.2608 46.4422 55.8438 46.6304 55.4245C47.4953 55.4197 48.3698 55.4125 49.2347 55.403C49.4348 55.8176 49.635 56.2346 49.8351 56.6468L49.878 56.7421L50.5523 56.7302L50.4403 56.5038C49.6945 54.9694 48.9368 53.3873 48.1887 51.798H48.1911ZM48.9464 54.7978C48.2864 54.805 47.6121 54.8121 46.8973 54.8169C47.2213 54.0997 47.5501 53.361 47.8956 52.5819C48.2482 53.3301 48.5985 54.0735 48.9464 54.8002V54.7978Z" fill="#C69B3E"></path><path id="Vector_13" d="M54.4385 51.5765C53.3496 51.6099 52.1749 51.6409 50.9526 51.6647H50.793L50.8025 52.2675H50.9645C51.4458 52.2556 51.9271 52.2437 52.4084 52.2318L52.518 56.6874L53.128 56.6731L53.0136 52.2175C53.4949 52.2056 53.9762 52.1913 54.4552 52.177H54.6172L54.6005 51.5718L54.4385 51.5789V51.5765Z" fill="#C69B3E"></path><path id="Vector_14" d="M56.1914 51.5189L56.3796 56.5726L56.992 56.5488L56.799 51.4951L56.1914 51.5189Z" fill="#C69B3E"></path><path id="Vector_15" d="M61.384 51.2808C61.334 51.2808 61.2863 51.2808 61.2363 51.2855C59.7947 51.3618 58.6749 52.5555 58.7368 53.9422C58.7654 54.6022 59.0561 55.2122 59.5541 55.6649C60.0425 56.1081 60.6811 56.3535 61.353 56.3535C61.4054 56.3535 61.4555 56.3535 61.5079 56.3487C62.2394 56.3106 62.9018 55.9937 63.3783 55.46C63.8239 54.9572 64.0478 54.3187 64.0049 53.6611C63.9239 52.3268 62.7731 51.2808 61.384 51.2808ZM62.9089 55.0668C62.5491 55.4719 62.0249 55.7197 61.4745 55.7507C60.9122 55.784 60.3833 55.591 59.9782 55.2265C59.597 54.881 59.3754 54.4164 59.3516 53.916C59.3063 52.8533 60.1664 51.9408 61.2672 51.8836C61.3054 51.8836 61.3435 51.8812 61.3792 51.8812C62.4419 51.8812 63.3235 52.6794 63.3902 53.6992C63.4212 54.1972 63.2496 54.6832 62.9089 55.0668Z" fill="#C69B3E"></path><path id="Vector_16" d="M69.7638 50.7139L69.1634 50.7615L69.4826 54.7263C68.3866 53.4802 67.3144 52.2412 66.2827 51.026L66.2422 50.9807L66.1421 50.9879C66.0444 50.995 65.9444 51.0022 65.8276 51.0093L65.668 51.0212L65.7013 51.5073C65.8014 52.9727 65.9039 54.438 66.0063 55.9057L66.0158 56.0678L66.2875 56.0487C66.347 56.0439 66.409 56.0416 66.4685 56.0344L66.6282 56.0225L66.3494 52.0601C67.4145 53.3086 68.4867 54.5452 69.5517 55.7533L69.6113 55.7985L69.6709 55.7938C69.7852 55.7842 69.8972 55.7771 70.0092 55.7675L70.1712 55.7556L69.7733 50.8759L69.7614 50.7139H69.7638Z" fill="#C69B3E"></path><path id="Vector_17" d="M74.0886 50.4231L74.0386 50.3325L73.9004 50.3468C73.8098 50.3563 73.7216 50.3635 73.6311 50.373L73.5263 50.3826L73.4953 50.4802C72.9401 52.0862 72.3588 53.7398 71.7655 55.391L71.6797 55.6268L71.9299 55.6054C72.0371 55.5959 72.1419 55.5863 72.2468 55.5768L72.3492 55.5673L72.4684 55.2313C72.5946 54.8763 72.7209 54.5213 72.8448 54.1686C73.7312 54.0876 74.6009 54.0042 75.4396 53.9208C75.6754 54.3188 75.9113 54.7143 76.1472 55.1122L76.1996 55.2003L76.8692 55.1336L76.7405 54.9168C75.8851 53.4896 74.994 51.9766 74.091 50.4231H74.0886ZM75.0988 53.3466C74.4055 53.4157 73.7216 53.48 73.0593 53.542C73.3261 52.7795 73.5954 52.0052 73.8598 51.2284C74.2768 51.948 74.6914 52.658 75.0965 53.3466H75.0988Z" fill="#C69B3E"></path><path id="Vector_18" d="M81.0887 54.4928C81.0792 54.4022 81.0673 54.3141 81.0553 54.2211L81.0339 54.0639L80.8766 54.0829C80.2285 54.1592 79.5662 54.2354 78.9085 54.3093C78.7513 52.8868 78.594 51.462 78.4344 50.0371L78.4153 49.8799L77.8125 49.9442L78.3462 54.812L78.3653 54.9693L78.5249 54.955C79.4161 54.8573 80.2071 54.7668 80.9457 54.6786L81.1054 54.6596L81.0863 54.4904L81.0887 54.4928Z" fill="#C69B3E"></path></g><g id="Group_3"><path id="Vector_19" d="M44.4896 38.3501C44.4896 36.1628 46.0765 34.514 48.1827 34.514C48.6069 34.514 49.05 34.6093 49.4861 34.7785C48.8094 34.3162 48.0684 34.0518 47.3917 34.0518C45.4736 34.0518 44.0273 35.56 44.0273 37.5591C44.0273 38.374 44.2728 39.1388 44.7231 39.7535C44.5706 39.3175 44.4872 38.8433 44.4872 38.3477L44.4896 38.3501Z" fill="#C69B3E"></path><path id="Vector_20" d="M70.3056 31.2427V38.7887C70.3056 42.8655 67.5178 45.5007 63.2052 45.5007C61.9328 45.5007 60.7867 45.2744 59.7812 44.8312C60.9154 45.5698 62.3593 45.9606 63.9938 45.9606C68.1063 45.9606 70.763 43.4564 70.763 39.5798V31.0474H70.3032V31.2451L70.3056 31.2427Z" fill="#C69B3E"></path><path id="Vector_21" d="M61.288 39.5798V31.0474H60.8281V38.7911C60.8281 39.4845 61.033 40.073 61.4167 40.5042C61.3333 40.2183 61.288 39.911 61.288 39.5798Z" fill="#C69B3E"></path><path id="Vector_22" d="M29.9529 34.8308L29.9743 34.8451C30.0053 34.8665 30.0458 34.888 30.0815 34.907C30.2293 34.4114 30.9155 34.328 31.3467 34.328C32.2617 34.328 33.7056 34.7593 35.0661 35.4145L34.9255 35.3359C33.4268 34.4853 31.7304 33.8682 30.5557 33.8682C30.1935 33.8682 29.5859 33.9277 29.5859 34.3256C29.5859 34.4615 29.6288 34.6259 29.9481 34.8308H29.9529Z" fill="#C69B3E"></path><path id="Vector_23" d="M37.1488 40.5088C37.1488 43.5157 34.6755 45.4576 30.8466 45.4576C29.2121 45.4576 27.4965 45.0549 25.9883 44.3449C27.6347 45.3409 29.66 45.9175 31.6352 45.9175C35.2641 45.9175 37.6086 44.1043 37.6086 41.2974C37.6086 40.2681 37.3227 39.489 36.8676 38.8838C37.0511 39.377 37.1488 39.9203 37.1488 40.5088Z" fill="#C69B3E"></path><path id="Vector_24" d="M4.53401 35.6409H4.73177V34.3686H7.68868C7.66724 34.3137 7.6315 34.2637 7.6315 34.2637C7.46471 34.035 7.12637 33.9087 6.67128 33.9087H6.61171H4.26953V35.6409H4.53163H4.53401Z" fill="#C69B3E"></path><path id="Vector_25" d="M4.53401 41.376H4.73177V39.8773H8.058C7.82688 39.5724 7.33605 39.4175 6.68081 39.4175H6.61171H4.26953V41.376H4.53163H4.53401Z" fill="#C69B3E"></path><path id="Vector_26" d="M13.1417 40.8164C13.1417 43.5613 10.7638 45.3364 7.08495 45.3364H1.75251C1.5333 45.3364 1.32362 45.3078 1.12109 45.2578C1.47135 45.5913 1.96933 45.7963 2.54117 45.7963H7.87362C11.3523 45.7963 13.6016 44.1522 13.6016 41.6051C13.6016 40.714 13.3443 39.9182 12.8749 39.2725C13.0488 39.7538 13.1417 40.2684 13.1417 40.8164Z" fill="#C69B3E"></path><path id="Vector_27" d="M13.1317 34.8693C13.1317 34.1164 12.8982 33.4516 12.4741 32.894C12.6028 33.2729 12.6719 33.6684 12.6719 34.0806C12.6719 35.353 12.0619 36.4585 11.0469 37.14L11.7116 37.6046C12.5956 36.978 13.1293 35.9987 13.1293 34.8693H13.1317Z" fill="#C69B3E"></path><path id="Vector_28" d="M20.9884 31.2427V45.3363H18.2579C18.1125 45.3363 17.9672 45.3196 17.8242 45.2886C18.134 45.6055 18.5605 45.7961 19.0489 45.7961H21.4507V31.0449H20.9908V31.2427H20.9884Z" fill="#C69B3E"></path><path id="Vector_29" d="M78.5861 31.2427V45.3363H75.8555C75.7102 45.3363 75.5648 45.3196 75.4219 45.2886C75.7316 45.6055 76.1581 45.7961 76.6466 45.7961H79.0483V31.0449H78.5885V31.2427H78.5861Z" fill="#C69B3E"></path><path id="Vector_30" d="M94.54 31.0449V34.0709H90.2393V45.3338H87.5111C87.3658 45.3338 87.218 45.3172 87.0703 45.2862C87.3777 45.6031 87.8042 45.7937 88.2998 45.7937H90.6991V34.5307H94.9999V31.0425H94.54V31.0449Z" fill="#C69B3E"></path><path id="Vector_31" d="M32.1089 40.5043C32.1017 40.4852 32.0946 40.4638 32.0851 40.4495L32.0684 40.428C31.7706 40.0158 30.7627 39.7442 29.7882 39.4797C28.8637 39.2295 27.8153 38.946 26.9123 38.4575C26.9004 38.4504 26.8908 38.4432 26.8789 38.4385C27.9249 39.3153 29.3879 39.7108 30.5983 40.0396C31.1511 40.1898 31.6776 40.3351 32.1089 40.5066V40.5043Z" fill="#C69B3E"></path><path id="Vector_32" d="M53.4519 42.7535L53.4138 42.7917C51.765 44.4619 49.3799 45.4984 47.1902 45.4984C45.9512 45.4984 44.7528 45.2411 43.6758 44.755C44.9219 45.5413 46.392 45.9582 47.9813 45.9582C50.1329 45.9582 52.4488 44.9313 54.0428 43.2753L53.5067 42.6987C53.4901 42.7178 53.471 42.7345 53.4543 42.7511L53.4519 42.7535Z" fill="#C69B3E"></path><path id="Vector_33" d="M37.4859 32.5245C37.3358 32.4292 37.1786 32.3386 37.0189 32.2505L35.4297 35.5934C35.5798 35.672 35.7299 35.7507 35.8753 35.834L37.4883 32.5245H37.4859Z" fill="#C69B3E"></path><path id="Vector_34" d="M53.7968 33.6348C53.6705 33.5062 53.5371 33.3799 53.4013 33.2607C53.101 33.6134 51.6262 35.4361 51.3164 35.8007C51.4403 35.9246 51.5594 36.0533 51.6667 36.1843L53.7968 33.6348Z" fill="#C69B3E"></path><path id="Vector_35" d="M85.4373 34.0732H82.2969V34.5331H85.4373V34.0732Z" fill="#C69B3E"></path></g><g id="Group_4"><path id="Vector_36" d="M47.3952 41.6359C46.7709 41.6359 46.1896 41.4929 45.6773 41.238C45.4891 41.1451 45.308 41.0355 45.1364 40.914C45.1317 40.9116 45.1293 40.9068 45.1245 40.9044C45.1197 40.8997 45.115 40.8973 45.1102 40.8925C44.9172 40.7495 44.7433 40.5851 44.5789 40.4064C43.9117 39.6821 43.5043 38.6909 43.5043 37.5591C43.5043 35.2646 45.1841 33.5252 47.3952 33.5252C48.365 33.5252 49.4062 33.9708 50.2663 34.7071C50.3712 34.7952 50.4736 34.8881 50.5713 34.9858C50.7071 35.1193 50.8358 35.2622 50.9597 35.4099L53.1303 32.8081C52.9111 32.5745 52.6681 32.3577 52.4155 32.1528C51.0121 31.0258 49.1393 30.3491 47.3356 30.3491C42.9539 30.3491 39.6562 33.4633 39.6562 37.5996C39.6562 39.4105 40.2519 41.0212 41.2693 42.2745C41.5362 42.6033 41.8293 42.9083 42.1509 43.1823C42.1557 43.187 42.1604 43.1918 42.1676 43.1966C42.2153 43.2371 42.2653 43.28 42.3129 43.3205C42.5774 43.5325 42.861 43.7231 43.154 43.8971C44.3049 44.5809 45.6773 44.9717 47.1903 44.9717C49.2704 44.9717 51.5053 43.9733 53.0398 42.4198C53.0755 42.3817 53.116 42.3459 53.1518 42.3078L50.9597 39.9513C49.9566 40.9759 48.5842 41.6311 47.3952 41.6311V41.6359Z" fill="#19213C"></path><path id="Vector_37" d="M66.0378 38.7887C66.0378 40.6519 64.8917 41.7789 63.231 41.7789C62.7783 41.7789 62.3589 41.6956 61.9872 41.5383C61.8514 41.4811 61.7203 41.4168 61.5988 41.3405C61.4511 41.2476 61.3105 41.1404 61.1842 41.0189C60.6338 40.5018 60.3026 39.7394 60.3026 38.7887V30.454H56.5547V38.7887C56.5547 40.4375 57.0479 41.8218 57.939 42.8583C58.1487 43.1037 58.3798 43.3277 58.6324 43.5326C58.6348 43.5326 58.6372 43.5374 58.6395 43.5398C58.661 43.5564 58.68 43.5731 58.7015 43.5874C58.9255 43.7613 59.1661 43.9186 59.4211 44.0616C60.4551 44.6477 61.7346 44.9717 63.2119 44.9717C67.2458 44.9717 69.7857 42.5748 69.7857 38.7863V30.4517H66.0378V38.7863V38.7887Z" fill="#19213C"></path><path id="Vector_38" d="M35.9414 38.2573C35.7841 38.0429 35.6054 37.8499 35.41 37.6759C33.9661 36.4036 31.5763 36.1296 30.1776 35.5387C30.1086 35.5101 30.0442 35.4791 29.9799 35.4505C29.9513 35.4362 29.9251 35.4219 29.8965 35.4076C29.8226 35.3695 29.7535 35.329 29.6868 35.2885C29.6797 35.2837 29.6725 35.279 29.6654 35.2742C29.2937 35.0335 29.0626 34.7357 29.0626 34.3259C29.0626 33.6706 29.6558 33.3418 30.5565 33.3418C31.7431 33.3418 33.6707 34.0185 35.186 34.8787L36.3822 32.3649L36.4679 32.1838L36.5489 32.0123L36.5966 31.9098C35.1027 30.9472 32.9725 30.292 30.8615 30.292C27.3994 30.292 25.1287 31.9908 25.1287 34.6738C25.1287 35.7936 25.4981 36.5918 26.0699 37.1875C26.22 37.3424 26.382 37.4829 26.556 37.6116C26.7466 37.7522 26.9467 37.8808 27.1588 37.9952C29.0745 39.0293 31.7598 39.1079 32.4912 40.1182C32.4936 40.123 32.4984 40.1253 32.5008 40.1301C32.558 40.2111 32.5985 40.3017 32.627 40.397C32.639 40.4375 32.6556 40.4756 32.6628 40.5185C32.6699 40.5614 32.6723 40.6066 32.6771 40.6495C32.6771 40.671 32.6842 40.69 32.6842 40.7139C32.6842 41.4716 31.9885 41.8814 30.8829 41.8814C29.7774 41.8814 28.1595 41.3524 26.8228 40.5328C26.6703 40.4399 26.5226 40.3445 26.3797 40.2445C26.1342 40.0753 25.9007 39.899 25.6839 39.7108L24.2305 42.6391C24.4521 42.8202 24.6879 42.9941 24.9334 43.1585C24.9882 43.1942 25.0453 43.23 25.1001 43.2657C25.155 43.3015 25.2098 43.3372 25.2669 43.3729C26.8776 44.3522 28.8934 44.9336 30.8424 44.9336C34.0376 44.9336 36.618 43.4397 36.618 40.5089C36.618 39.8275 36.4846 39.2628 36.2559 38.7839C36.1653 38.5933 36.0605 38.4193 35.9414 38.2549V38.2573Z" fill="#19213C"></path><path id="Vector_39" d="M11.942 38.6171C11.8253 38.4527 11.6966 38.2978 11.5536 38.1572C11.4559 38.0619 11.3535 37.9737 11.2439 37.8903C11.2367 37.8832 11.2296 37.8784 11.2224 37.8713C11.17 37.8332 11.1128 37.7998 11.0557 37.7617C10.9913 37.7188 10.927 37.6711 10.8579 37.633C10.7292 37.5592 10.5958 37.4948 10.4576 37.4353C10.2122 37.3304 9.95009 37.247 9.66893 37.1898C11.1843 36.78 12.1469 35.572 12.1469 34.0757C12.1469 33.6206 12.054 33.2012 11.8872 32.8176C11.8086 32.6365 11.7133 32.4626 11.5989 32.3006C11.4726 32.1219 11.3249 31.9551 11.1581 31.8002C10.2455 30.9448 8.74207 30.4492 6.82401 30.4492H0V43.2323C0 43.7327 0.238268 44.1902 0.655238 44.4832C0.736249 44.5404 0.822026 44.5905 0.914951 44.6333C1.00311 44.6739 1.09603 44.7096 1.19611 44.7358C1.36766 44.7835 1.55351 44.8073 1.75366 44.8073H7.0861C10.4647 44.8073 12.6163 43.2704 12.6163 40.8139C12.6163 40.2016 12.49 39.6369 12.2565 39.1436C12.1684 38.9554 12.0588 38.7815 11.9396 38.6147L11.942 38.6171ZM3.74796 33.3823H6.61433C6.63339 33.3823 6.65484 33.3823 6.6739 33.3823C7.33152 33.3823 7.81759 33.5991 8.07968 33.9851C8.09398 34.0066 8.10351 34.0328 8.1178 34.0542C8.16069 34.1281 8.19643 34.2091 8.22503 34.2949C8.23932 34.3378 8.256 34.3759 8.26315 34.4212C8.2703 34.4569 8.27506 34.495 8.27983 34.5331C8.28936 34.5975 8.29412 34.6642 8.29412 34.7357C8.29412 35.6363 7.66033 36.17 6.61433 36.17H3.74796V33.3847V33.3823ZM6.61433 41.9028H3.74796V38.8911H6.61433C6.63816 38.8911 6.6596 38.8911 6.68105 38.8911C7.55073 38.8911 8.19405 39.1579 8.51571 39.6083C8.52286 39.6202 8.52763 39.6321 8.53477 39.6416C8.58719 39.7226 8.63008 39.8108 8.66344 39.9013C8.67774 39.9395 8.69441 39.9752 8.70395 40.0157C8.71586 40.061 8.72301 40.1086 8.73015 40.1563C8.73969 40.2182 8.74445 40.2802 8.74445 40.3445C8.74445 41.3286 7.92481 41.9004 6.61433 41.9004V41.9028Z" fill="#19213C"></path><path id="Vector_40" d="M81.707 30.4541V33.5468H85.9673V43.1467C85.9673 43.1467 85.9268 44.8122 87.5136 44.8122H89.7152V33.5492H94.016V30.4565H81.7094L81.707 30.4541Z" fill="#19213C"></path><path id="Vector_41" d="M74.3125 43.2706C74.3125 44.1212 75.0011 44.8098 75.8517 44.8098H78.0605V30.4541H74.3125V43.2706Z" fill="#19213C"></path><path id="Vector_42" d="M16.7148 43.2706C16.7148 44.1212 17.4034 44.8098 18.2541 44.8098H20.4628V30.4541H16.7148V43.2706Z" fill="#19213C"></path></g></g><defs><clipPath id="clip0_4059_5864"><rect width="95" height="56.5673" fill="white" transform="translate(0 0.212891)"></rect></clipPath></defs></svg> 